<?xml version="1.0" encoding="UTF-8" standalone="no"?>
<!-- Created with Inkscape (http://www.inkscape.org/) -->

<svg
   width="71.345879mm"
   height="20.769958mm"
   viewBox="0 0 71.345879 20.769958"
   version="1.1"
   id="svg1"
   inkscape:version="1.3.2 (1:1.3.2+202311252150+091e20ef0f)"
   sodipodi:docname="logo-raw.svg"
   xmlns:inkscape="http://www.inkscape.org/namespaces/inkscape"
   xmlns:sodipodi="http://sodipodi.sourceforge.net/DTD/sodipodi-0.dtd"
   xmlns="http://www.w3.org/2000/svg"
   xmlns:svg="http://www.w3.org/2000/svg">
  <sodipodi:namedview
     id="namedview1"
     pagecolor="#ffffff"
     bordercolor="#000000"
     borderopacity="0.25"
     inkscape:showpageshadow="2"
     inkscape:pageopacity="0.0"
     inkscape:pagecheckerboard="0"
     inkscape:deskcolor="#d1d1d1"
     inkscape:document-units="mm"
     inkscape:zoom="1.6875873"
     inkscape:cx="117.03098"
     inkscape:cy="11.851239"
     inkscape:window-width="3440"
     inkscape:window-height="1355"
     inkscape:window-x="1920"
     inkscape:window-y="0"
     inkscape:window-maximized="1"
     inkscape:current-layer="layer1" />
  <defs
     id="defs1" />
  <g
     inkscape:label="Layer 1"
     inkscape:groupmode="layer"
     id="layer1"
     transform="translate(-14.779037,-88.796539)">
    <rect
       style="fill:none;stroke-width:0.333468;stroke-linecap:round"
       id="rect4"
       width="71.345879"
       height="20.769958"
       x="14.779037"
       y="88.796539"
       ry="0"
       inkscape:export-filename="logo-white.png"
       inkscape:export-xdpi="96"
       inkscape:export-ydpi="96" />
    <g
       id="g4"
       style="fill:#000000"
       inkscape:export-filename="logo-black.png"
       inkscape:export-xdpi="96"
       inkscape:export-ydpi="96">
      <path
         style="font-size:22.5778px;font-family:Trotes;-inkscape-font-specification:Trotes;text-align:end;letter-spacing:0px;text-anchor:end;fill:#000000;stroke-width:1.32292;stroke-linecap:round"
         d="m 66.300382,107.17899 q -0.745068,0.72249 -1.625602,1.03858 -0.857956,0.33866 -1.806224,0.33866 -0.970845,0 -1.919113,-0.38382 -0.92569,-0.38382 -1.670757,-1.12889 -0.745068,-0.74507 -1.219202,-1.8288 -0.451556,-1.08373 -0.451556,-2.46098 0,-1.30951 0.451556,-2.28036 0.474134,-0.993422 1.196624,-1.648178 0.72249,-0.677334 1.625602,-1.016001 0.903112,-0.338667 1.806224,-0.338667 0.248355,0 0.474133,0.02258 0.225778,0 0.451556,0 0.451556,0 0.880535,-0.09031 0.451556,-0.112889 0.857956,-0.451556 0.04516,-0.04516 0.158045,-0.158045 0.112889,-0.112889 0.225778,-0.248356 0.135466,-0.135467 0.2032,-0.270933 0.09031,0.293511 0.09031,0.677334 0,0.6096 -0.2032,1.219201 -0.180623,0.587023 -0.541867,0.970845 -0.51929,0.51929 -1.083735,0.654756 -0.564445,0.112889 -1.219201,0.158045 -0.451556,0.02258 -0.948268,0.180625 -0.474133,0.13546 -0.880534,0.45155 -0.4064,0.29351 -0.677334,0.79022 -0.270933,0.49672 -0.270933,1.26436 0,0.79022 0.248355,1.39982 0.270934,0.58703 0.677334,0.99343 0.428979,0.38382 0.948268,0.58702 0.541867,0.18062 1.061157,0.18062 0.519289,0 1.038578,-0.2032 0.51929,-0.2032 0.92569,-0.6096 0.428978,-0.4064 0.699912,-0.99342 0.270934,-0.58702 0.293512,-1.35467 l -0.09031,0.11289 q 0.04516,-0.0452 0.04516,-0.22578 0.02258,-0.18062 0.04516,-0.38382 0,-0.22578 0,-0.51929 0,-0.69991 0.225778,-1.28693 0.225778,-0.587025 0.587022,-1.038581 0.383823,-0.474134 0.835379,-0.790223 0.474134,-0.316089 0.970845,-0.474134 v 10.024538 h -2.009433 l -0.316089,-0.97084 z"
         id="path3" />
      <path
         style="font-size:22.5778px;font-family:Trotes;-inkscape-font-specification:Trotes;text-align:end;letter-spacing:0px;text-anchor:end;fill:#000000;stroke-width:1.32292;stroke-linecap:round"
         d="m 51.284471,99.592849 q 0.270933,-0.51929 0.857956,-0.92569 0.496712,-0.361245 1.354668,-0.654756 0.880535,-0.293512 2.302936,-0.270934 l -0.383823,2.099736 q -0.857956,0.04515 -1.625601,0.383825 -0.654756,0.31609 -1.309513,0.99342 -0.632178,0.65476 -0.993423,1.91911 v 5.41867 h -2.777069 v -8.06027 q 0,-0.903111 -0.112889,-1.422401 -0.112889,-0.519289 -0.225778,-0.677334 h 2.054579 l 0.857957,1.332091 z"
         id="path2" />
      <path
         style="font-size:22.5778px;font-family:Trotes;-inkscape-font-specification:Trotes;text-align:end;letter-spacing:0px;text-anchor:end;fill:#000000;stroke-width:1.32292;stroke-linecap:round"
         d="m 42.651664,107.17899 q -0.745067,0.72249 -1.625601,1.03858 -0.857957,0.33866 -1.806224,0.33866 -0.970846,0 -1.919113,-0.38382 -0.92569,-0.38382 -1.670758,-1.12889 -0.745067,-0.74507 -1.219201,-1.8288 -0.451556,-1.08373 -0.451556,-2.46098 0,-1.30951 0.451556,-2.28036 0.474134,-0.993422 1.196624,-1.648178 0.722489,-0.677334 1.625601,-1.016001 0.903112,-0.338667 1.806224,-0.338667 0.248356,0 0.474134,0.02258 0.225778,0 0.451556,0 0.451556,0 0.880534,-0.09031 0.451556,-0.112889 0.857957,-0.451556 0.04515,-0.04516 0.158044,-0.158045 0.112889,-0.112889 0.225778,-0.248356 0.135467,-0.135467 0.203201,-0.270933 0.09031,0.293511 0.09031,0.677334 0,0.6096 -0.2032,1.219201 -0.180623,0.587023 -0.541868,0.970845 -0.519289,0.51929 -1.083734,0.654756 -0.564445,0.112889 -1.219201,0.158045 -0.451556,0.02258 -0.948268,0.180625 -0.474134,0.13546 -0.880534,0.45155 -0.406401,0.29351 -0.677334,0.79022 -0.270934,0.49672 -0.270934,1.26436 0,0.79022 0.248356,1.39982 0.270934,0.58703 0.677334,0.99343 0.428978,0.38382 0.948268,0.58702 0.541867,0.18062 1.061156,0.18062 0.51929,0 1.038579,-0.2032 0.51929,-0.2032 0.92569,-0.6096 0.428978,-0.4064 0.699912,-0.99342 0.270933,-0.58702 0.293511,-1.35467 l -0.09031,0.11289 q 0.04516,-0.0452 0.04516,-0.22578 0.02258,-0.18062 0.04516,-0.38382 0,-0.22578 0,-0.51929 0,-0.69991 0.225778,-1.28693 0.225778,-0.587025 0.587023,-1.038581 0.383823,-0.474134 0.835379,-0.790223 0.474134,-0.316089 0.970845,-0.474134 v 10.024538 h -2.009424 l -0.316089,-0.97084 z"
         id="path1" />
      <path
         style="font-size:22.5778px;font-family:Trotes;-inkscape-font-specification:Trotes;text-align:end;letter-spacing:0px;text-anchor:end;fill:#000000;stroke-width:1.32292;stroke-linecap:round"
         d="m 16.303371,91.329369 q -0.338667,-0.31609 -0.6096,-0.72249 -0.270934,-0.4064 -0.383823,-0.857956 0.767645,0.587022 1.580446,0.835378 0.812801,0.248356 1.715913,0.316089 0.451556,0.02258 0.903112,0 0.474134,-0.04516 0.948268,-0.09031 0.790223,-0.09031 1.580446,-0.180622 0.790223,-0.112889 1.580446,-0.158045 0.812801,-0.06773 1.603024,-0.02258 0.812801,0.02258 1.603024,0.203201 0.993423,0.225778 1.873957,0.699911 0.903112,0.474134 1.625602,1.151468 0.745067,0.677334 1.286934,1.535291 0.541868,0.857956 0.835379,1.851379 0.248356,0.72249 0.338667,1.490135 0.09031,0.745068 0.04516,1.512713 0,0.835379 -0.135467,1.625599 -0.04516,0.18063 -0.09031,0.38383 -0.02258,0.18062 -0.06773,0.36124 -0.02258,0.0452 -0.04516,0.13547 0,0.0677 -0.02258,0.11289 -0.04516,0.13546 -0.112889,0.31609 -0.04516,0.18062 -0.09031,0.31609 -0.06773,0.2032 -0.158045,0.4064 -0.06773,0.2032 -0.158045,0.38382 -0.04516,0.11289 -0.135466,0.27093 -0.09031,0.13547 -0.135467,0.24836 -0.361245,0.69991 -0.880534,1.35467 -0.02258,0.0226 -0.06773,0.0903 -0.04515,0.0452 -0.06773,0.0903 -0.04516,0.0452 -0.158045,0.15804 -0.09031,0.11289 -0.135467,0.15805 -0.04515,0.0677 -0.112889,0.13546 -0.06773,0.0677 -0.112889,0.11289 l -0.112889,0.13547 -0.112889,0.11289 q -1.354668,1.30951 -3.093158,2.00942 -1.738491,0.72249 -3.612448,0.72249 -0.428979,0 -0.993424,0 -0.564445,0 -1.174045,0 -0.587023,0.0226 -1.151468,0.0226 -0.541867,0 -0.970846,0 V 96.815774 q 0,-0.587023 0.203201,-1.083734 0.225778,-0.496712 0.587022,-0.880534 0.383823,-0.383823 0.880535,-0.587023 0.519289,-0.225778 1.083734,-0.225778 v 11.740455 h 1.512713 q 0.790223,0 1.444979,-0.15804 0.112889,-0.0226 0.225778,-0.0452 0.135467,-0.0226 0.248356,-0.0677 0.04516,-0.0226 0.112889,-0.0226 0.06773,-0.0226 0.112889,-0.0452 l 0.225778,-0.0677 q 0.112889,-0.0451 0.225778,-0.0903 0.112889,-0.0452 0.225778,-0.0903 0.948267,-0.4064 1.715913,-1.06116 0.767645,-0.67733 1.309512,-1.51271 0.541867,-0.85796 0.835379,-1.8288 0.293511,-0.970848 0.293511,-1.986849 0.04516,-0.857957 -0.135467,-1.693335 -0.180622,-0.857957 -0.632178,-1.580446 -0.2032,-0.31609 -0.451556,-0.587023 -0.248356,-0.270934 -0.51929,-0.51929 -1.016001,-0.880534 -2.235202,-1.174045 -0.677334,-0.180623 -1.399823,-0.203201 -0.72249,-0.04516 -1.44498,-0.04516 -0.722489,0 -1.467557,0.02258 -0.722489,0 -1.444979,-0.06773 -1.106312,-0.112889 -2.212624,-0.474134 -1.083735,-0.361244 -1.919114,-1.151467 z"
         id="text1" />
      <path
         id="rect3"
         style="fill:#000000;stroke-width:0.638658;stroke-linecap:round"
         d="m 75.207278,95.918321 c -1.23654,0 -2.23206,0.995516 -2.23206,2.232055 v 8.173804 c 0,1.23654 0.99552,2.23205 2.23206,2.23205 h 8.1738 c 1.23655,0 2.23206,-0.99551 2.23206,-2.23205 v -8.173804 c 0,-1.236539 -0.99551,-2.232055 -2.23206,-2.232055 z m 2.43887,2.437124 h 1.57743 l 2.29866,7.849735 h -1.33269 l -0.44033,-1.69967 h -2.68984 l -0.4523,1.69967 h -1.28405 z m 4.46286,0 h 1.22891 v 7.849735 h -1.22891 z m -3.72916,1.069751 -1.02085,3.888314 h 2.0664 z" />
    </g>
  </g>
</svg>
