<svg id="visual" viewBox="0 0 900 100" width="900" height="100" xmlns="http://www.w3.org/2000/svg" xmlns:xlink="http://www.w3.org/1999/xlink" version="1.1"><path d="M0 60L15 58.3C30 56.7 60 53.3 90 48C120 42.7 150 35.3 180 29C210 22.7 240 17.3 270 19.5C300 21.7 330 31.3 360 34.3C390 37.3 420 33.7 450 36.2C480 38.7 510 47.3 540 47.7C570 48 600 40 630 40.3C660 40.7 690 49.3 720 48.8C750 48.3 780 38.7 810 34.5C840 30.3 870 31.7 885 32.3L900 33L900 101L885 101C870 101 840 101 810 101C780 101 750 101 720 101C690 101 660 101 630 101C600 101 570 101 540 101C510 101 480 101 450 101C420 101 390 101 360 101C330 101 300 101 270 101C240 101 210 101 180 101C150 101 120 101 90 101C60 101 30 101 15 101L0 101Z" fill="#b9314f"></path><path d="M0 51L15 50.3C30 49.7 60 48.3 90 50.3C120 52.3 150 57.7 180 56.2C210 54.7 240 46.3 270 47.3C300 48.3 330 58.7 360 61.8C390 65 420 61 450 57.7C480 54.3 510 51.7 540 48.3C570 45 600 41 630 42.2C660 43.3 690 49.7 720 51.8C750 54 780 52 810 50C840 48 870 46 885 45L900 44L900 101L885 101C870 101 840 101 810 101C780 101 750 101 720 101C690 101 660 101 630 101C600 101 570 101 540 101C510 101 480 101 450 101C420 101 390 101 360 101C330 101 300 101 270 101C240 101 210 101 180 101C150 101 120 101 90 101C60 101 30 101 15 101L0 101Z" fill="#632a58"></path><path d="M0 62L15 65C30 68 60 74 90 73.5C120 73 150 66 180 67.7C210 69.3 240 79.7 270 79.5C300 79.3 330 68.7 360 68.3C390 68 420 78 450 80C480 82 510 76 540 75C570 74 600 78 630 75.8C660 73.7 690 65.3 720 62.5C750 59.7 780 62.3 810 68C840 73.7 870 82.3 885 86.7L900 91L900 101L885 101C870 101 840 101 810 101C780 101 750 101 720 101C690 101 660 101 630 101C600 101 570 101 540 101C510 101 480 101 450 101C420 101 390 101 360 101C330 101 300 101 270 101C240 101 210 101 180 101C150 101 120 101 90 101C60 101 30 101 15 101L0 101Z" fill="#1a1b2f"></path></svg>